# xmcd CD database file
#
# Track frame offsets:
#	150
#	40119
#	68889
#	96464
#	123631
#	148708
#	175359
#	216612
#
# Disc length: 3222 seconds
#
# Revision: 0
# Processed by: cddbd v1.5.2PL0 Copyright (c) Steve Scherf et al.
# Submitted via: CDex 1.70beta2
#
DISCID=820c9408
DTITLE=Ed Palermo Big Band - TAKE YOUR CLOTHES OFF
DYEAR=2006
DGENRE=Jazz
TTITLE0=Ed Palermo Big Band - Composed by Frank Zappa - RDNZL 
TTITLE1=	 - Take Your Clothes Off When You Dance
TTITLE2=	 - Dwarf Nebula Processional March and Dwarf Nebula
TTITLE3=	 - Pound For A Brown On the Bus
TTITLE4=	 - Sleep Dirt 
TTITLE5=	 - Gumbo Variations 
TTITLE6=	 - Mom and Dad - Oh No 
TTITLE7=	 - Moggio 
EXTD=YEAR: 2006
EXTT0=
EXTT1=
EXTT2=
EXTT3=
EXTT4=
EXTT5=
EXTT6=
EXTT7=
PLAYORDER=
